# xmcd
#
# Track frame offsets: 
#        150
#        13653
#        29284
#        40595
#        51608
#        63175
#        90811
#        105363
#        118129
#        125819
#        145159
#
# Disc length: 2183 seconds
#
# Revision: 0
# Processed by: cddbd v1.5.2PL0 Copyright (c) Steve Scherf et al.
# Submitted via: ExactAudioCopy v1.1
#
DISCID=8d08850b
DTITLE=The Burying Ground - The Burying Ground
DYEAR=2017
DGENRE=Blues
TTITLE0=Come Back Home
TTITLE1=Old Wolf
TTITLE2=Wild Woman Blues
TTITLE3=Howlin' Wind Rags
TTITLE4=Poison In The Well
TTITLE5=Death Don't Have No One's Prayers
TTITLE6=Crooked Smiles
TTITLE7=Mean Spirit Blues
TTITLE8=Union Street Strut
TTITLE9=Hard To See A Good Man Fall
TTITLE10=Longing For Home
EXTD=
EXTT0=
EXTT1=
EXTT2=
EXTT3=
EXTT4=
EXTT5=
EXTT6=
EXTT7=
EXTT8=
EXTT9=
EXTT10=
PLAYORDER=
